# Blender v2.77 (sub 0) OBJ File: ''
# www.blender.org
mtllib log.mtl
o ShapeIndexedFaceSet.128
v 0.000000 0.000003 1.198238
v -0.149828 0.150004 1.097953
v 0.150142 0.150004 1.098484
v -0.149828 -0.149996 1.097953
v 0.149853 -0.149997 -1.098047
v 0.000001 0.000003 -1.198291
v 0.149853 0.150004 -1.098047
v -0.000156 0.225003 -1.098271
v -0.150141 -0.149997 -1.098537
v -0.000156 -0.224997 -1.098271
v 0.000157 -0.224997 1.098219
v 0.150142 -0.149996 1.098484
v 0.225138 0.000003 1.098564
v 0.224825 0.000003 -1.097926
v 0.000157 0.225003 1.098218
v -0.150141 0.150004 -1.098537
v -0.224800 0.000003 1.097832
v -0.225113 0.000003 -1.098658
vt 1.5000 0.0000
vt 2.0000 4.0000
vt 1.5000 4.0000
vt 2.0000 0.0000
vt 2.5000 0.0000
vt 2.5000 4.0000
vt 3.0000 0.0000
vt 3.0000 4.0000
vt 3.5000 4.0000
vt 3.5000 0.0000
vt 4.0000 4.0000
vt 4.0000 0.0000
vt 0.0000 4.0000
vt 0.5000 0.0000
vt 0.5000 4.0000
vt 0.0000 0.0000
vt 1.0000 4.0000
vt 1.0000 0.0000
vt 0.1499 0.8496
vt 0.0000 0.5000
vt 0.5000 0.5000
vt 0.5000 1.0000
vt 1.0000 0.5000
vt 0.8496 0.8496
vt 0.1499 0.1499
vt 0.5000 0.0000
vt 0.8496 0.1499
vt 0.1499 0.1499
vt 0.0000 0.5000
vt 0.5000 0.5000
vt 0.5000 0.0000
vt 1.0000 0.5000
vt 0.8496 0.1499
vt 0.1499 0.8496
vt 0.5000 1.0000
vt 0.8496 0.8496
vn -0.4473 -0.8944 0.0001
vn -0.4472 -0.8944 0.0001
vn 0.4473 -0.8944 -0.0001
vn 0.4472 -0.8944 -0.0001
vn 0.8944 -0.4472 -0.0001
vn 0.8945 -0.4471 -0.0001
vn 0.8944 0.4472 -0.0001
vn 0.8945 0.4471 -0.0001
vn 0.4472 0.8944 -0.0001
vn -0.4472 0.8944 0.0001
vn -0.8945 0.4471 0.0001
vn -0.8945 -0.4471 0.0001
vn -0.3997 0.1990 0.8948
vn -0.2006 0.3981 0.8951
vn 0.3967 0.1988 0.8961
vn 0.1975 0.3981 0.8958
vn -0.2006 -0.3981 0.8951
vn -0.3997 -0.1990 0.8948
vn 0.3967 -0.1988 0.8961
vn 0.1975 -0.3981 0.8958
vn -0.3966 -0.1990 -0.8962
vn -0.1975 -0.3981 -0.8958
vn 0.3995 -0.1989 -0.8949
vn 0.2004 -0.3981 -0.8952
vn -0.1975 0.3981 -0.8958
vn -0.3966 0.1990 -0.8962
vn 0.3995 0.1989 -0.8949
vn 0.2004 0.3981 -0.8952
usemtl Material_3328989F_c.png
s 1
f 9/1/1 11/2/1 4/3/1
f 9/1/2 10/4/2 11/2/2
f 11/2/3 5/5/3 12/6/3
f 11/2/4 10/4/4 5/5/4
f 12/6/5 14/7/5 13/8/5
f 12/6/6 5/5/6 14/7/6
f 14/7/7 3/9/7 13/8/7
f 14/7/8 7/10/8 3/9/8
f 7/10/9 15/11/9 3/9/9
f 7/10/9 8/12/9 15/11/9
f 15/13/10 16/14/10 2/15/10
f 15/13/10 8/16/10 16/14/10
f 2/15/11 16/14/11 17/17/11
f 16/14/11 18/18/11 17/17/11
f 18/18/12 4/3/12 17/17/12
f 18/18/12 9/1/12 4/3/12
usemtl Material.001
f 2/19/13 17/20/13 1/21/13
f 2/19/14 1/21/14 15/22/14
f 1/21/15 13/23/15 3/24/15
f 1/21/16 3/24/16 15/22/16
f 4/25/17 11/26/17 1/21/17
f 17/20/18 4/25/18 1/21/18
f 12/27/19 13/23/19 1/21/19
f 11/26/20 12/27/20 1/21/20
f 9/28/21 18/29/21 6/30/21
f 9/28/22 6/30/22 10/31/22
f 6/30/23 14/32/23 5/33/23
f 6/30/24 5/33/24 10/31/24
f 16/34/25 8/35/25 6/30/25
f 18/29/26 16/34/26 6/30/26
f 7/36/27 14/32/27 6/30/27
f 8/35/28 7/36/28 6/30/28
