# Blender v2.79 (sub 0) OBJ File: 'o.blend'
# www.blender.org
mtllib Sign.mtl
o Shape_IndexedFaceSet.001
v 0.007537 0.124798 -0.044901
v 0.007598 0.124798 0.044847
v 0.007598 0.074798 0.044847
v 0.007537 0.074798 -0.044901
v 0.007537 0.124798 -0.044901
v 0.007598 0.074798 0.044847
vt 0.000000 0.966797
vt 0.000000 0.000000
vt 0.966797 0.000000
vt 0.000000 0.966797
vt 0.966797 0.000000
vt 0.966797 0.966797
vn -1.0000 0.0000 0.0007
usemtl Shape.053
s off
f 3/1/1 2/2/1 1/3/1
f 6/4/1 5/5/1 4/6/1
o Shape_IndexedFaceSet.000
v 0.001064 0.132298 -0.005897
v -0.008932 0.132298 0.000109
v -0.002682 0.135798 0.000105
v 0.001072 0.132298 0.005852
v -0.002682 0.135798 0.000105
v -0.008932 0.132298 0.000109
v 0.001072 0.132298 0.005852
v 0.001064 0.132298 -0.005897
v -0.002682 0.135798 0.000105
v 0.001064 0.132298 -0.005897
v 0.001072 0.132298 0.005852
v 0.001068 0.000048 0.000102
v -0.008928 0.000048 0.005859
v 0.001068 0.000048 0.000102
v 0.001072 0.132298 0.005852
v 0.001072 0.132298 0.005852
v -0.008932 0.132298 0.000109
v -0.008928 0.000048 0.005859
v -0.008936 0.000048 -0.005891
v -0.008928 0.000048 0.005859
v -0.008932 0.132298 0.000109
v 0.001068 0.000048 0.000102
v -0.008936 0.000048 -0.005891
v 0.001064 0.132298 -0.005897
v -0.008932 0.132298 0.000109
v 0.001064 0.132298 -0.005897
v -0.008936 0.000048 -0.005891
vt 0.939453 0.466797
vt 0.916016 0.466797
vt 0.916016 0.761719
vt 0.916016 0.466797
vt 0.939453 0.466797
vt 0.916016 0.173828
vt 0.939453 0.466797
vt 0.916016 0.761719
vt 0.916016 0.173828
vt 0.035156 0.466797
vt 0.916016 0.173828
vt 0.916016 0.761719
vt 0.916016 0.173828
vt 0.035156 0.466797
vt 0.035156 0.173828
vt 0.035156 0.173828
vt 0.916016 0.466797
vt 0.916016 0.173828
vt 0.916016 0.466797
vt 0.035156 0.173828
vt 0.035156 0.761719
vt 0.916016 0.761719
vt 0.035156 0.761719
vt 0.035156 0.466797
vt 0.035156 0.761719
vt 0.916016 0.761719
vt 0.916016 0.466797
vn 0.3793 -0.6765 0.6312
vn 0.3719 -0.6649 -0.6478
vn -0.6823 -0.7311 0.0005
vn -1.0000 0.0000 0.0007
vn -0.4987 0.0377 -0.8660
vn 0.4975 -0.0377 -0.8666
vn 1.0000 0.0000 -0.0007
vn -0.5135 0.0389 0.8572
vn 0.5147 -0.0389 0.8565
usemtl Shape.051
s off
f 9/7/2 8/8/2 7/9/2
f 12/10/3 11/11/3 10/12/3
f 15/13/4 14/14/4 13/15/4
f 18/16/5 17/17/5 16/18/5
f 21/19/6 20/20/6 19/21/6
f 24/22/7 23/23/7 22/24/7
f 27/25/8 26/26/8 25/27/8
f 30/28/9 29/29/9 28/30/9
f 33/31/10 32/32/10 31/33/10
o Shape_IndexedFaceSet.053
v 0.007598 0.074798 0.044847
v -0.002402 0.074798 0.044854
v -0.002463 0.074798 -0.044894
v -0.002402 0.074798 0.044854
v -0.002402 0.124798 0.044854
v -0.002463 0.074798 -0.044894
v 0.007598 0.074798 0.044847
v 0.007598 0.124798 0.044847
v -0.002402 0.074798 0.044854
v 0.007598 0.124798 0.044847
v -0.002402 0.124798 0.044854
v -0.002402 0.074798 0.044854
v 0.007537 0.074798 -0.044901
v 0.007598 0.074798 0.044847
v -0.002463 0.074798 -0.044894
v 0.007598 0.124798 0.044847
v 0.007537 0.124798 -0.044901
v -0.002402 0.124798 0.044854
v -0.002402 0.124798 0.044854
v -0.002463 0.124798 -0.044894
v -0.002463 0.074798 -0.044894
v 0.007537 0.124798 -0.044901
v -0.002463 0.124798 -0.044894
v -0.002402 0.124798 0.044854
v -0.002463 0.124798 -0.044894
v 0.007537 0.124798 -0.044901
v 0.007537 0.074798 -0.044901
v -0.002463 0.074798 -0.044894
v -0.002463 0.124798 -0.044894
v 0.007537 0.074798 -0.044901
vt 0.966797 0.966797
vt 0.000000 0.966797
vt 0.000000 0.966797
vt 0.966797 0.966797
vt 0.000000 0.000000
vt 0.000000 0.966797
vt 0.000000 0.966797
vt 0.000000 0.000000
vt 0.000000 0.966797
vt 0.000000 0.966797
vt 0.000000 0.000000
vt 0.000000 0.000000
vt 0.966797 0.966797
vt 0.000000 0.966797
vt 0.966797 0.966797
vt 0.000000 0.000000
vt 0.966797 0.000000
vt 0.000000 0.000000
vt 0.966797 0.966797
vt 0.966797 0.000000
vt 0.000000 0.000000
vt 0.000000 0.000000
vt 0.966797 0.000000
vt 0.966797 0.000000
vt 0.966797 0.966797
vt 0.966797 0.000000
vt 0.966797 0.000000
vt 0.966797 0.966797
vt 0.966797 0.000000
vt 0.966797 0.966797
vn 0.0000 1.0000 0.0000
vn 1.0000 -0.0000 -0.0007
vn -0.0007 0.0000 -1.0000
vn 0.0000 -1.0000 -0.0000
vn 0.0007 -0.0000 1.0000
usemtl Shape.052
s off
f 36/34/11 35/35/11 34/36/11
f 39/37/12 38/38/12 37/39/12
f 42/40/13 41/41/13 40/42/13
f 45/43/13 44/44/13 43/45/13
f 48/46/11 47/47/11 46/48/11
f 51/49/14 50/50/14 49/51/14
f 54/52/12 53/53/12 52/54/12
f 57/55/14 56/56/14 55/57/14
f 60/58/15 59/59/15 58/60/15
f 63/61/15 62/62/15 61/63/15
