# Blender v2.77 (sub 0) OBJ File: ''
# www.blender.org
mtllib Unused Sword.mtl
o ShapeIndexedFaceSet.130
v 0.004041 1.098846 0.000683
v 0.119351 0.894970 -0.041137
v -0.125760 0.896719 -0.040758
v -0.125760 0.896719 -0.040758
v -0.125760 0.896719 -0.040758
v -0.056910 0.317179 -0.012744
v 0.119351 0.894970 -0.041137
v 0.055232 0.316375 -0.016714
v -0.056910 0.317179 -0.012744
v -0.125760 0.896719 -0.040758
v 0.119351 0.894970 -0.041137
v -0.056910 0.317179 -0.012744
v 0.125341 0.315886 -0.021813
v 0.058373 0.252018 -0.019927
v 0.055232 0.316375 -0.016714
v 0.125694 0.251468 -0.049608
v 0.058373 0.252018 -0.019927
v 0.125341 0.315886 -0.021813
v -0.137124 0.317711 -0.025433
v -0.056910 0.317179 -0.012744
v -0.057357 0.252847 -0.012564
v -0.140406 0.253325 -0.049844
v -0.137124 0.317711 -0.025433
v -0.057357 0.252847 -0.012564
v -0.056910 0.317179 -0.012744
v 0.058373 0.252018 -0.019927
v -0.057357 0.252847 -0.012564
v 0.055232 0.316375 -0.016714
v 0.058373 0.252018 -0.019927
v -0.056910 0.317179 -0.012744
v 0.060552 0.044081 -0.022802
v 0.000269 0.000012 -0.006801
v -0.057357 0.252847 -0.012564
v 0.058373 0.252018 -0.019927
v 0.060552 0.044081 -0.022802
v -0.057357 0.252847 -0.012564
v -0.121013 0.896935 0.043429
v -0.054288 0.317273 0.018856
v -0.121013 0.896935 0.043429
v 0.000269 0.000012 -0.006801
v -0.076005 0.045049 -0.023000
v -0.057357 0.252847 -0.012564
v -0.121013 0.896935 0.043429
v -0.054288 0.317273 0.018856
v 0.127687 0.895162 0.039657
v 0.004041 1.098846 0.000683
v -0.121013 0.896935 0.043429
v 0.127687 0.895162 0.039657
v -0.139791 0.253634 0.058749
v -0.058276 0.252925 0.022405
v -0.138633 0.317865 0.030538
v 0.127687 0.895162 0.039657
v -0.054288 0.317273 0.018856
v 0.051053 0.316477 0.007682
v 0.130066 0.251691 0.048536
v 0.124091 0.315994 0.027158
v 0.047063 0.252161 0.011266
v -0.138633 0.317865 0.030538
v -0.058276 0.252925 0.022405
v -0.054288 0.317273 0.018856
v -0.054288 0.317273 0.018856
v -0.058276 0.252925 0.022405
v 0.051053 0.316477 0.007682
v 0.124091 0.315994 0.027158
v 0.051053 0.316477 0.007682
v 0.047063 0.252161 0.011266
v -0.058276 0.252925 0.022405
v -0.073925 0.045181 0.029577
v 0.047063 0.252161 0.011266
v 0.051053 0.316477 0.007682
v -0.058276 0.252925 0.022405
v 0.047063 0.252161 0.011266
v -0.000275 0.000082 0.014211
v 0.062796 0.044212 0.022792
v 0.047063 0.252161 0.011266
v -0.073925 0.045181 0.029577
v -0.000275 0.000082 0.014211
v 0.047063 0.252161 0.011266
v -0.121013 0.896935 0.043429
v 0.004041 1.098846 0.000683
v -0.125760 0.896719 -0.040758
v 0.004041 1.098846 0.000683
v 0.004041 1.098846 0.000683
v -0.121013 0.896935 0.043429
v 0.127687 0.895162 0.039657
v 0.119351 0.894970 -0.041137
v 0.004041 1.098846 0.000683
v 0.004041 1.098846 0.000683
v 0.127687 0.895162 0.039657
v 0.004041 1.098846 0.000683
v 0.051053 0.316477 0.007682
v 0.055232 0.316375 -0.016714
v 0.119351 0.894970 -0.041137
v 0.127687 0.895162 0.039657
v 0.051053 0.316477 0.007682
v 0.119351 0.894970 -0.041137
v 0.051053 0.316477 0.007682
v 0.125341 0.315886 -0.021813
v 0.055232 0.316375 -0.016714
v 0.124091 0.315994 0.027158
v 0.125341 0.315886 -0.021813
v 0.051053 0.316477 0.007682
v 0.124091 0.315994 0.027158
v 0.125694 0.251468 -0.049608
v 0.125341 0.315886 -0.021813
v 0.130066 0.251691 0.048536
v 0.125694 0.251468 -0.049608
v 0.124091 0.315994 0.027158
v 0.047063 0.252161 0.011266
v 0.058373 0.252018 -0.019927
v 0.125694 0.251468 -0.049608
v 0.130066 0.251691 0.048536
v 0.047063 0.252161 0.011266
v 0.125694 0.251468 -0.049608
v 0.047063 0.252161 0.011266
v 0.060552 0.044081 -0.022802
v 0.058373 0.252018 -0.019927
v 0.062796 0.044212 0.022792
v 0.060552 0.044081 -0.022802
v 0.047063 0.252161 0.011266
v -0.000275 0.000082 0.014211
v 0.000269 0.000012 -0.006801
v 0.060552 0.044081 -0.022802
v 0.062796 0.044212 0.022792
v -0.000275 0.000082 0.014211
v 0.060552 0.044081 -0.022802
v -0.000275 0.000082 0.014211
v -0.076005 0.045049 -0.023000
v 0.000269 0.000012 -0.006801
v -0.073925 0.045181 0.029577
v -0.076005 0.045049 -0.023000
v -0.000275 0.000082 0.014211
v -0.058276 0.252925 0.022405
v -0.057357 0.252847 -0.012564
v -0.076005 0.045049 -0.023000
v -0.073925 0.045181 0.029577
v -0.058276 0.252925 0.022405
v -0.076005 0.045049 -0.023000
v -0.058276 0.252925 0.022405
v -0.140406 0.253325 -0.049844
v -0.057357 0.252847 -0.012564
v -0.139791 0.253634 0.058749
v -0.140406 0.253325 -0.049844
v -0.058276 0.252925 0.022405
v -0.138633 0.317865 0.030538
v -0.137124 0.317711 -0.025433
v -0.140406 0.253325 -0.049844
v -0.139791 0.253634 0.058749
v -0.138633 0.317865 0.030538
v -0.140406 0.253325 -0.049844
v -0.054288 0.317273 0.018856
v -0.056910 0.317179 -0.012744
v -0.137124 0.317711 -0.025433
v -0.138633 0.317865 0.030538
v -0.054288 0.317273 0.018856
v -0.137124 0.317711 -0.025433
v -0.054288 0.317273 0.018856
v -0.125760 0.896719 -0.040758
v -0.056910 0.317179 -0.012744
v -0.121013 0.896935 0.043429
v -0.125760 0.896719 -0.040758
v -0.054288 0.317273 0.018856
v -0.121013 0.896935 0.043429
v -0.121013 0.896935 0.043429
v -0.125760 0.896719 -0.040758
v -0.125760 0.896719 -0.040758
v -0.121013 0.896935 0.043429
v -0.125760 0.896719 -0.040758
vt 0.6211 0.4189
vt 0.5176 0.3906
vt 0.6543 0.3662
vt 0.6543 0.3662
vt 0.6543 0.3662
vt 0.5137 0.2549
vt 0.5176 0.3906
vt 0.4531 0.2656
vt 0.5137 0.2549
vt 0.6543 0.3662
vt 0.5176 0.3906
vt 0.5137 0.2549
vt 0.0527 0.9326
vt 0.3281 0.7705
vt 0.3105 0.9297
vt 0.0723 0.7725
vt 0.3281 0.7705
vt 0.0527 0.9326
vt 0.9336 0.9180
vt 0.6777 0.9229
vt 0.6953 0.7646
vt 0.9512 0.7578
vt 0.9336 0.9180
vt 0.6953 0.7646
vt 0.6777 0.9229
vt 0.3281 0.7705
vt 0.6953 0.7646
vt 0.3105 0.9297
vt 0.3281 0.7705
vt 0.6777 0.9229
vt 0.3418 0.2090
vt 0.5840 0.0996
vt 0.6953 0.7646
vt 0.3281 0.7705
vt 0.3418 0.2090
vt 0.6953 0.7646
vt 0.6543 0.3652
vt 0.5137 0.2549
vt 0.6543 0.3652
vt 0.5840 0.0996
vt 0.8047 0.2012
vt 0.6953 0.7646
vt 0.6543 0.3652
vt 0.5137 0.2549
vt 0.5156 0.3896
vt 0.6211 0.4189
vt 0.6543 0.3652
vt 0.5156 0.3896
vt 0.9512 0.7646
vt 0.6934 0.7666
vt 0.9336 0.9219
vt 0.5156 0.3896
vt 0.5137 0.2549
vt 0.4531 0.2656
vt 0.0703 0.7803
vt 0.0527 0.9365
vt 0.3281 0.7734
vt 0.9336 0.9219
vt 0.6934 0.7666
vt 0.6758 0.9248
vt 0.6758 0.9248
vt 0.6934 0.7666
vt 0.3105 0.9316
vt 0.0527 0.9365
vt 0.3105 0.9316
vt 0.3281 0.7734
vt 0.6934 0.7666
vt 0.8047 0.2041
vt 0.3281 0.7734
vt 0.3105 0.9316
vt 0.6934 0.7666
vt 0.3281 0.7734
vt 0.5840 0.1016
vt 0.3418 0.2119
vt 0.3281 0.7734
vt 0.8047 0.2041
vt 0.5840 0.1016
vt 0.3281 0.7734
vt 0.6543 0.3652
vt 0.6211 0.4189
vt 0.6543 0.3662
vt 0.6211 0.4189
vt 0.6211 0.4189
vt 0.6543 0.3652
vt 0.5156 0.3896
vt 0.5176 0.3906
vt 0.6211 0.4189
vt 0.6211 0.4189
vt 0.5156 0.3896
vt 0.6211 0.4189
vt 0.4531 0.2656
vt 0.4531 0.2656
vt 0.5176 0.3906
vt 0.5156 0.3896
vt 0.4531 0.2656
vt 0.5176 0.3906
vt 0.3105 0.9316
vt 0.0527 0.9326
vt 0.3105 0.9297
vt 0.0527 0.9365
vt 0.0527 0.9326
vt 0.3105 0.9316
vt 0.0527 0.9365
vt 0.0723 0.7725
vt 0.0527 0.9326
vt 0.0703 0.7803
vt 0.0723 0.7725
vt 0.0527 0.9365
vt 0.3281 0.7734
vt 0.3281 0.7705
vt 0.0723 0.7725
vt 0.0703 0.7803
vt 0.3281 0.7734
vt 0.0723 0.7725
vt 0.3281 0.7734
vt 0.3418 0.2090
vt 0.3281 0.7705
vt 0.3418 0.2119
vt 0.3418 0.2090
vt 0.3281 0.7734
vt 0.5840 0.1016
vt 0.5840 0.0996
vt 0.3418 0.2090
vt 0.3418 0.2119
vt 0.5840 0.1016
vt 0.3418 0.2090
vt 0.5840 0.1016
vt 0.8047 0.2012
vt 0.5840 0.0996
vt 0.8047 0.2041
vt 0.8047 0.2012
vt 0.5840 0.1016
vt 0.6934 0.7666
vt 0.6953 0.7646
vt 0.8047 0.2012
vt 0.8047 0.2041
vt 0.6934 0.7666
vt 0.8047 0.2012
vt 0.6934 0.7666
vt 0.9512 0.7578
vt 0.6953 0.7646
vt 0.9512 0.7646
vt 0.9512 0.7578
vt 0.6934 0.7666
vt 0.9336 0.9219
vt 0.9336 0.9180
vt 0.9512 0.7578
vt 0.9512 0.7646
vt 0.9336 0.9219
vt 0.9512 0.7578
vt 0.6758 0.9248
vt 0.6777 0.9229
vt 0.9336 0.9180
vt 0.9336 0.9219
vt 0.6758 0.9248
vt 0.9336 0.9180
vt 0.5137 0.2549
vt 0.6543 0.3662
vt 0.5137 0.2549
vt 0.6543 0.3652
vt 0.6543 0.3662
vt 0.5137 0.2549
vt 0.6543 0.3652
vt 0.6543 0.3652
vt 0.6543 0.3662
vt 0.6543 0.3662
vt 0.6543 0.3652
vt 0.6543 0.3662
vn -0.0001 0.2009 -0.9796
vn 0.0000 0.0000 1.0000
vn -0.0356 -0.0382 -0.9986
vn -0.0019 -0.0485 -0.9988
vn -0.0721 0.0462 -0.9963
vn -0.3729 0.3659 -0.8527
vn 0.1562 -0.0038 -0.9877
vn 0.3910 0.3088 -0.8670
vn -0.0635 -0.0024 -0.9980
vn -0.0350 0.0481 -0.9982
vn -0.2080 -0.0697 -0.9756
vn -0.0634 0.0131 -0.9979
vn 0.2239 0.0288 -0.9742
vn 0.0149 -0.0406 0.9991
vn 0.0163 0.1974 0.9802
vn 0.3816 0.3659 0.8488
vn 0.1047 -0.0687 0.9921
vn -0.3947 0.2566 0.8822
vn 0.1374 0.0461 0.9894
vn 0.1057 0.0482 0.9932
vn -0.2566 0.0696 0.9640
vn 0.1053 0.0264 0.9941
vn 0.1054 0.0488 0.9932
vn -0.1637 0.0422 0.9856
vn 0.1900 -0.0242 0.9815
vn -0.8448 0.5330 0.0463
vn 0.8589 0.5042 -0.0898
vn 0.9805 -0.1015 0.1684
vn 0.9869 -0.1251 -0.1015
vn 0.0068 1.0000 -0.0030
vn 0.0072 1.0000 -0.0020
vn 0.9997 -0.0055 0.0255
vn 0.9960 0.0777 -0.0445
vn -0.0073 -1.0000 0.0019
vn -0.0068 -1.0000 0.0026
vn 0.9401 0.0051 0.3408
vn 0.9961 0.0726 -0.0492
vn 0.5932 -0.8049 0.0180
vn 0.5755 -0.8174 -0.0260
vn -0.5068 -0.8620 -0.0102
vn -0.5186 -0.8547 0.0227
vn -0.9955 0.0907 -0.0264
vn -0.9963 0.0764 0.0392
vn -0.0067 -1.0000 0.0021
vn -0.0074 -1.0000 0.0029
vn -0.9978 0.0611 -0.0271
vn -0.9998 0.0205 0.0056
vn 0.0072 1.0000 -0.0036
vn 0.0067 1.0000 -0.0026
vn -0.9901 -0.1136 0.0825
vn -0.9916 -0.1165 0.0562
usemtl Material.001
s 1
f 1/1/1 2/2/1 3/3/1
f 4/4/2 5/5/2 6/6/2
f 7/7/3 8/8/3 9/9/3
f 10/10/4 11/11/4 12/12/4
f 13/13/5 14/14/5 15/15/5
f 16/16/6 17/17/6 18/18/6
f 19/19/7 20/20/7 21/21/7
f 22/22/8 23/23/8 24/24/8
f 25/25/9 26/26/9 27/27/9
f 28/28/10 29/29/10 30/30/10
f 31/31/11 32/32/11 33/33/11
f 34/34/12 35/35/12 36/36/12
f 37/37/2 38/38/2 39/39/2
f 40/40/13 41/41/13 42/42/13
f 43/43/14 44/44/14 45/45/14
f 46/46/15 47/47/15 48/48/15
f 49/49/16 50/50/16 51/51/16
f 52/52/17 53/53/17 54/54/17
f 55/55/18 56/56/18 57/57/18
f 58/58/19 59/59/19 60/60/19
f 61/61/20 62/62/20 63/63/20
f 64/64/21 65/65/21 66/66/21
f 67/67/22 68/68/22 69/69/22
f 70/70/23 71/71/23 72/72/23
f 73/73/24 74/74/24 75/75/24
f 76/76/25 77/77/25 78/78/25
f 79/79/26 80/80/26 81/81/26
f 82/82/2 83/83/2 84/84/2
f 85/85/27 86/86/27 87/87/27
f 88/88/2 89/89/2 90/90/2
f 91/91/28 92/92/28 93/93/28
f 94/94/29 95/95/29 96/96/29
f 97/97/30 98/98/30 99/99/30
f 100/100/31 101/101/31 102/102/31
f 103/103/32 104/104/32 105/105/32
f 106/106/33 107/107/33 108/108/33
f 109/109/34 110/110/34 111/111/34
f 112/112/35 113/113/35 114/114/35
f 115/115/36 116/116/36 117/117/36
f 118/118/37 119/119/37 120/120/37
f 121/121/38 122/122/38 123/123/38
f 124/124/39 125/125/39 126/126/39
f 127/127/40 128/128/40 129/129/40
f 130/130/41 131/131/41 132/132/41
f 133/133/42 134/134/42 135/135/42
f 136/136/43 137/137/43 138/138/43
f 139/139/44 140/140/44 141/141/44
f 142/142/45 143/143/45 144/144/45
f 145/145/46 146/146/46 147/147/46
f 148/148/47 149/149/47 150/150/47
f 151/151/48 152/152/48 153/153/48
f 154/154/49 155/155/49 156/156/49
f 157/157/50 158/158/50 159/159/50
f 160/160/51 161/161/51 162/162/51
f 163/163/2 164/164/2 165/165/2
f 166/166/2 167/167/2 168/168/2
